<svg xmlns="http://www.w3.org/2000/svg" xmlns:xlink="http://www.w3.org/1999/xlink" viewBox="0 0 6777.66 1976.78"><defs><style>      .cls-1 {        fill: #343434;        fill-rule: evenodd;      }      .cls-1, .cls-2, .cls-3, .cls-4 {        stroke-width: 0px;      }      .cls-5 {        clip-path: url(#clippath-2);      }      .cls-2 {        fill: url(#Gradiente_sem_nome_3-2);      }      .cls-3 {        fill: none;      }      .cls-6 {        clip-path: url(#clippath-1);      }      .cls-4 {        fill: url(#Gradiente_sem_nome_3);      }    </style><clipPath id="clippath-1"><path class="cls-3" d="m3493.65,319.98c-26.6,23.86-39.89,53.68-39.89,89.45,0,25.67,8.93,46.33,26.82,61.93,17.89,15.58,42.89,23.39,75,23.39,40.36,0,73.62-11.71,99.75-35.09,26.14-23.39,39.23-53,39.23-88.77,0-25.67-8.95-46.54-26.84-62.59-17.89-16.06-42.43-24.09-73.61-24.09-40.38,0-73.87,11.92-100.46,35.77"></path></clipPath><linearGradient id="Gradiente_sem_nome_3" data-name="Gradiente sem nome 3" x1="3098.88" y1="1376.07" x2="3116.29" y2="1376.07" gradientTransform="translate(42370.85 -16785.89) rotate(180) scale(12.48 -12.48)" gradientUnits="userSpaceOnUse"><stop offset="0" stop-color="#f28c3e"></stop><stop offset="1" stop-color="#e94b33"></stop></linearGradient><clipPath id="clippath-2"><path class="cls-3" d="m697.8,1420.34l10.29-16.8,57.96-94.55,68.42-111.67c20.38-33.42,9.83-77.04-23.6-97.42-43.03-26.39-74.74-65.57-92.23-110.3-17.54-44.77-20.83-95.14-7.07-143.91,13.72-48.61,42.76-89.72,81.06-118.72,38.26-28.93,85.81-45.74,136.53-45.74s98.22,16.81,136.47,45.74c38.29,29,67.36,70.11,81.07,118.72,13.73,48.77,10.46,99.12-7.07,143.89-17.49,44.75-49.2,83.93-92.23,110.31-33.42,20.38-43.98,64-23.58,97.42l105.3,171.84,31.66,51.66c-34.13,15.33-69.6,27.19-105.91,35.49-40.95,9.35-83.81,12.31-125.61,12.31-4.07.09-8.11.14-12.17.14-75.7,0-150.54-16.52-219.29-48.42m-219.72-849.97c70.91-95.02,171.58-167.68,290.82-203.08,119.52-35.45,243.71-29.5,355,11.47,111.27,40.94,209.52,116.79,277.46,221.15,68,104.45,97.56,225.14,89.97,343.53-7.59,118.36-52.34,234.26-133.05,329.03-23.51,27.57-49.12,52.39-76.55,74.37l-31.78-51.78-71.73-117.1c41.69-38.31,73.43-85.29,93.54-136.72,28.51-72.79,33.85-154.63,11.54-233.8-22.42-79.4-69.76-146.48-132.16-193.69-62.4-47.24-139.75-74.65-221.99-74.65s-159.64,27.41-222.02,74.65c-62.36,47.2-109.76,114.28-132.14,193.69-22.35,79.18-16.99,161.03,11.5,233.8,20.12,51.45,51.85,98.41,93.55,136.72l-269.29,439.5c-2.92,4.73-7.03,8.15-11.59,9.97-4.59,1.78-10.06,2.02-15.6.5-5.38-1.55-9.76-4.54-12.74-8.41-2.89-3.86-4.58-8.98-4.58-14.79v-697.58h-.28c.02-124.41,41.09-241.65,112.11-336.77m250.84-339.09c-149.82,44.47-276.05,135.4-364.67,254.15-88.58,118.65-139.83,265.43-139.85,421.71h-.28v697.58c0,37.35,12.17,72.14,33.49,100.25,21.27,28.13,51.52,49.29,87.67,59.49,35.99,10.16,72.72,7.9,105.51-4.91,32.79-12.85,61.32-36.22,80.99-68.28l17.67-28.82h-.02l73.61-120.11c95.52,46.04,200.2,69.88,306.23,69.78,2.91,0,19.44-.33,22.75-.24,45.17-1.48,90.02-7.29,133.93-17.32,144.55-33,278.81-111.55,380.04-230.48,101.32-118.96,157.43-263.95,166.92-411.77,9.5-147.84-27.59-298.76-112.72-429.6-85.23-130.9-208.31-225.99-347.41-277.2-77.37-28.49-159.71-43.39-243.33-43.39-66.68,0-134.16,9.49-200.53,29.15"></path></clipPath><linearGradient id="Gradiente_sem_nome_3-2" data-name="Gradiente sem nome 3" x1="3172.25" y1="1343.34" x2="3189.65" y2="1343.34" gradientTransform="translate(295646.22 -123440.25) rotate(-180) scale(92.63 -92.63)" xlink:href="#Gradiente_sem_nome_3"></linearGradient></defs><g id="bolinha"><g class="cls-6"><rect class="cls-4" x="3455.88" y="257.89" width="236.56" height="263.19" transform="translate(2780.56 3896.12) rotate(-83.47)"></rect></g></g><g id="Icone"><g class="cls-5"><rect class="cls-2" x="53.07" y="173.4" width="1760.38" height="1629.97" transform="translate(-179.24 1769.57) rotate(-81.72)"></rect></g></g><g id="registrado"><path class="cls-1" d="m6564.76,1367.32c12.17,0,17.6,8.23,17.6,16.47s-5.29,16.48-17.6,16.48h-29.43v-32.95h29.43Zm42.05,83.35l-31.07-35.02c19.49-3.95,25.93-18.17,25.93-32.29,0-17.82-12.74-33.92-36.92-34.06-16.27.14-32.51,0-48.79,0v102.69h19.35v-34.29h18.59l29.88,34.29h23.01v-1.32Z"></path><path class="cls-1" d="m6616.7,1341.34c-15.18-15.18-36.15-24.56-59.32-24.56s-44.12,9.38-59.3,24.56c-15.18,15.18-24.58,36.15-24.58,59.3s9.4,44.14,24.58,59.32c15.18,15.18,36.15,24.58,59.3,24.58s44.14-9.4,59.32-24.58c15.18-15.18,24.58-36.13,24.58-59.32s-9.4-44.12-24.58-59.3m-59.32-37.25c26.66,0,50.81,10.81,68.28,28.28,17.47,17.47,28.28,41.62,28.28,68.26s-10.81,50.81-28.28,68.28c-17.47,17.47-41.62,28.28-68.28,28.28s-50.79-10.81-68.26-28.28c-17.47-17.47-28.28-41.62-28.28-68.28s10.81-50.79,28.28-68.26c17.47-17.47,41.62-28.28,68.26-28.28"></path><rect class="cls-3" x="224.11" y="186.94" width="6553.54" height="1587.71"></rect></g><g id="y"><polygon class="cls-1" points="6211.86 571.58 6319.46 1047.51 6580.19 571.58 6777.66 571.58 6228.87 1497.19 6034.92 1497.19 6187.81 1252.56 6013.13 571.58 6211.86 571.58"></polygon></g><g id="c"><path class="cls-1" d="m5651.94,562.73c92.82,0,165.8,24.47,218.96,73.42,53.17,48.93,79.75,115.59,79.75,199.99h-188.6c-1.69-37.13-14.13-66.45-37.33-87.97-23.2-21.53-55.05-32.27-95.57-32.27-48.09,0-90.91,17.51-128.45,52.51-37.58,35.04-62.26,86.3-74.06,153.79-3.39,17.72-5.07,36.71-5.07,56.95,0,48.96,12.44,86.1,37.33,111.41,24.91,25.31,57.16,37.96,96.84,37.96s77.42-10.77,108.21-32.27c30.79-21.53,53.38-50.84,67.72-87.97h188.6c-29.54,84.38-78.9,151.04-148.1,199.97-69.19,48.96-148.92,73.42-239.22,73.42s-162.03-25.53-215.18-76.57c-53.17-51.07-79.73-121.73-79.73-212.01,0-27.01,2.51-55.71,7.59-86.09,12.65-70.87,38.38-132.24,77.21-184.16,38.81-51.88,86.7-91.55,143.66-118.98,56.95-27.41,118.77-41.13,185.44-41.13"></path></g><g id="Camada_8" data-name="Camada 8"><polygon class="cls-1" points="3627.95 571.58 3503.9 1272.82 3325.43 1272.82 3449.48 571.58 3627.95 571.58"></polygon></g><g id="v"><polygon class="cls-1" points="3979.83 1094.34 4249.42 571.58 4439.31 571.58 4055.77 1272.82 3838.06 1272.82 3703.89 571.58 3893.76 571.58 3979.83 1094.34"></polygon></g><g id="a"><path class="cls-1" d="m4803.56,718.42c-55.68,0-103.77,18.14-144.29,54.43-40.5,36.29-66.21,86.07-77.19,149.35-3.39,23.64-5.06,40.08-5.06,49.36,0,48.11,13.7,85.65,41.13,112.66,27.41,27,65.18,40.5,113.29,40.5,54.01,0,101.68-18.36,143.04-55.07,41.35-36.69,67.48-85.84,78.46-147.46,3.39-21.93,5.07-37.98,5.07-48.09,0-48.11-14.13-86.07-42.4-113.92-28.25-27.85-65.62-41.77-112.04-41.77m-36.69-155.69c61.61,0,111.6,14.12,149.98,42.4,38.4,28.27,62.24,65.62,71.54,112.02l26.58-145.56h177.19l-124.01,701.22h-177.22l26.56-146.81c-26.14,47.26-62.85,85.01-110.11,113.27-47.24,28.28-100.39,42.4-159.48,42.4-79.32,0-141.77-24.45-187.33-73.42-45.57-48.93-68.33-116.88-68.33-203.78,0-32.91,2.92-65.39,8.84-97.47,12.67-70.04,36.73-131.2,72.14-183.52,35.45-52.32,78.69-92.2,129.76-119.63,51.05-27.41,105.67-41.13,163.91-41.13"></path></g><g id="Camada_10" data-name="Camada 10"><path class="cls-1" d="m3078.61,705.75c33.75-44.71,74.46-79.94,122.15-105.68,47.67-25.74,98.51-38.6,152.52-38.6l-34.18,191.13h-51.9c-130.78,0-206.72,60.76-227.83,182.27l-59.47,337.96h-179.74l124.05-701.24h178.47l-24.05,134.18Z"></path></g><g id="Camada_9" data-name="Camada 9"><path class="cls-1" d="m2354.1,1124.73c54.86,0,102.53-17.93,143.05-53.78,40.48-35.87,66.66-85.44,78.46-148.75,2.54-17.72,3.81-33.75,3.81-48.09,0-49.8-13.73-88.19-41.16-115.19-27.41-27-65.16-40.5-113.27-40.5-54.01,0-101.68,18.35-143.04,55.05-41.34,36.71-67.5,86.28-78.46,148.73-2.54,16.05-3.79,31.23-3.79,45.57,0,48.94,14.13,87.34,42.38,115.19,28.28,27.85,65.62,41.77,112.02,41.77m155.69-562c77.64,0,139.45,24.04,185.44,72.14,45.98,48.11,68.99,114.75,68.99,199.99,0,27.85-2.54,56.97-7.59,87.34-13.52,73.43-38.41,137.33-74.69,191.75-36.29,54.43-80.59,96.01-132.91,124.69-52.3,28.68-108.02,43.03-167.09,43.03s-106.94-14.12-143.66-42.4c-36.69-28.27-59.7-66.02-68.98-113.27l-65.44,371.2h-178.51l162.95-925.61h178.47l-26.6,145.56c26.16-47.26,62.89-84.82,110.12-112.65,47.26-27.85,100.43-41.77,159.48-41.77"></path></g></svg>